<?xml version="1.0" encoding="UTF-8" standalone="no"?>
<svg width="152px" height="70px" viewBox="0 0 152 70" version="1.1" xmlns="http://www.w3.org/2000/svg" xmlns:xlink="http://www.w3.org/1999/xlink" xmlns:sketch="http://www.bohemiancoding.com/sketch/ns">
    <!-- Generator: Sketch 3.3.3 (12072) - http://www.bohemiancoding.com/sketch -->
    <title>logo</title>
    <desc>Created with Sketch.</desc>
    <defs>
        <linearGradient x1="50.0000903%" y1="-0.340482041%" x2="50.0000903%" y2="98.5255113%" id="linearGradient-1">
            <stop stop-color="#00A3C6" offset="0%"></stop>
            <stop stop-color="#F9A54E" offset="100%"></stop>
        </linearGradient>
        <linearGradient x1="50.0000903%" y1="1.71084131%" x2="50.0000903%" y2="97.0682584%" id="linearGradient-2">
            <stop stop-color="#FFEE00" offset="0%"></stop>
            <stop stop-color="#EE453B" offset="100%"></stop>
        </linearGradient>
        <linearGradient x1="-9.03391331e-05%" y1="49.9999548%" x2="102.645943%" y2="49.9999548%" id="linearGradient-3">
            <stop stop-color="#FFF472" offset="0%"></stop>
            <stop stop-color="#FCEF72" offset="11.35%"></stop>
            <stop stop-color="#F4E271" offset="24.16%"></stop>
            <stop stop-color="#E7CB6F" offset="37.68%"></stop>
            <stop stop-color="#D5AB6C" offset="51.7%"></stop>
            <stop stop-color="#BD8369" offset="66.1%"></stop>
            <stop stop-color="#A15165" offset="80.82%"></stop>
            <stop stop-color="#7F1761" offset="95.53%"></stop>
            <stop stop-color="#74045F" offset="100%"></stop>
        </linearGradient>
        <linearGradient x1="100.942491%" y1="49.9999548%" x2="-8.16827166%" y2="49.9999548%" id="linearGradient-4">
            <stop stop-color="#6BB365" offset="0%"></stop>
            <stop stop-color="#EE453B" offset="100%"></stop>
        </linearGradient>
    </defs>
    <g id="Landgin" stroke="none" stroke-width="1" fill="none" fill-rule="evenodd" sketch:type="MSPage">
        <g id="Landing" sketch:type="MSArtboardGroup" transform="translate(-250.000000, -30.000000)">
            <g id="logo" sketch:type="MSLayerGroup" transform="translate(250.000000, 30.000000)">
                <g id="Group" sketch:type="MSShapeGroup">
                    <g transform="translate(66.767372, 11.529412)" fill="#5E6367">
                        <g id="Shape">
                            <path d="M10.0518792,6.93061765 C10.0806405,5.42170588 10.1091964,4.36758824 10.1091964,3.82632353 C12.1832991,3.85514706 14.1444109,3.85514706 15.9352145,3.88376471 C16.3043867,3.88376471 16.4746949,3.57020588 16.4746949,2.94411765 C16.4746949,2.45988235 16.4459335,2.00364706 16.3596495,1.52044118 C15.2806888,1.71952941 14.2571964,1.80435294 13.2630816,1.80435294 C11.3584653,1.80435294 7.21046526,1.74835294 0.844966767,1.6625 C0.419299094,1.6625 0.192084592,2.06088235 0.192084592,2.88667647 C0.192084592,3.22844118 0.220229607,3.59902941 0.277546828,4.02602941 C1.47052568,3.85494118 2.57824773,3.77011765 3.57318429,3.77011765 C4.34029003,3.77011765 5.30667069,3.77011765 6.52923263,3.79852941 L6.5857281,4.82382353 C6.67077946,6.84558824 6.72809668,9.00941176 6.72809668,11.2584706 L6.72809668,20.0873235 C6.72809668,21.3683235 7.35283384,22.0238529 8.57436858,22.0238529 C8.66044713,22.0238529 9.31291843,21.9386176 10.4781631,21.7391176 C10.1663082,19.2053235 9.996,15.4739118 9.996,10.4905294 C9.99641088,9.66432353 10.024145,8.46897059 10.0518792,6.93061765 L10.0518792,6.93061765 Z"></path>
                            <path d="M21.8925076,7.30882353 C20.2718066,7.30882353 18.3682175,8.505 17.6009063,10.2132059 L17.4868882,10.1854118 L17.6859577,9.13067647 C17.6859577,7.99194118 16.7475166,7.30861765 15.3832024,7.30861765 C15.0438187,7.30861765 14.5893897,7.39405882 13.9923867,7.56452941 C14.0488822,7.62114706 14.1339335,7.82105882 14.2200121,8.19123529 C14.3042417,8.56120588 14.4180544,9.32997059 14.5318671,10.5543529 C14.6456798,11.7785294 14.7019698,13.2310294 14.7019698,14.9682647 C14.7019698,15.4821471 14.6742356,16.2787059 14.6456798,17.3900588 C14.5893897,18.4991471 14.5606284,19.3255588 14.5606284,19.9238529 C14.5606284,21.6046765 15.1863927,22.1165 16.351432,22.1165 C16.4929789,22.1165 17.1762659,22.0310588 18.3404834,21.8315588 C18.2829607,21.8037647 18.2264653,21.6610882 18.1414139,21.3763529 C18.0563625,21.1202353 17.9423444,20.4367059 17.8572931,19.3255588 C17.7443021,18.2152353 17.6859577,16.8483824 17.6859577,15.1677647 C17.6859577,11.5236471 18.6243988,9.70014706 20.5281934,9.70014706 C20.9826224,9.70014706 21.7497281,9.95708824 22.8009547,10.4967059 L22.9425015,10.4411176 C23.1701269,9.84282353 23.2849668,9.15929412 23.2849668,8.41811765 C23.2853776,7.67838235 22.8299215,7.30882353 21.8925076,7.30882353 L21.8925076,7.30882353 Z"></path>
                            <path d="M36.8370997,20.3506471 C36.637003,20.4945588 36.2390695,20.6652353 35.8996858,20.6652353 C34.9612447,20.6652353 34.4780544,19.6105 34.4780544,17.5032941 L34.4780544,17.1621471 C34.4780544,16.6204706 34.5068157,15.7948824 34.5343444,14.6273235 C34.5631057,13.4885882 34.5631057,12.663 34.5631057,12.1787647 C34.5631057,10.6976471 34.393003,9.758 33.796,8.73332353 C33.198997,7.70741176 31.9199396,7.16676471 29.9875891,7.16676471 C27.5730755,7.16676471 25.1852689,8.84635294 24.7308399,10.6412353 L24.844858,10.7542647 C26.1228882,9.61532353 27.4315287,9.04585294 28.7670816,9.04585294 C30.8411843,9.04585294 31.4934502,10.2424412 31.4934502,12.7762353 L31.4934502,13.0331765 C29.7907795,13.062 28.1127613,13.4031471 26.4943202,14.1719118 C24.8736193,14.9686765 23.7658973,16.5074412 23.7658973,18.4439706 C23.7658973,20.6077941 25.242997,22.2595882 27.5447251,22.2595882 C29.2494502,22.2595882 30.7273716,21.3201471 31.409426,20.0671471 L31.5234441,20.1235588 C31.5511782,21.5194412 32.6024048,22.1169118 33.9379577,22.1169118 C34.8476375,22.1169118 35.6722659,21.8319706 36.1266949,21.4897941 C36.5521571,21.1774706 36.9215347,20.6942647 37.0065861,20.5503529 L37.0918429,20.3508529 L36.978852,20.2666471 L36.8370997,20.3506471 L36.8370997,20.3506471 Z M31.4653051,16.3355294 C31.437571,17.2749706 31.4090151,17.9020882 31.4090151,18.2732941 C31.4090151,19.2979706 29.9319154,20.2376176 28.8796616,20.2376176 C27.7719396,20.2376176 26.9758671,19.4974706 26.9758671,17.9020882 C26.9758671,17.3326176 27.1174139,16.8207941 27.374006,16.3643529 C27.8847251,15.4823529 28.3964713,15.0833529 29.4193474,14.7125588 C30.4428399,14.3423824 30.6984048,14.3135588 31.4932447,14.1717059 C31.4930393,14.6847647 31.4930393,15.3960882 31.4653051,16.3355294 L31.4653051,16.3355294 Z"></path>
                            <path d="M49.6541752,7.59376471 L49.5401571,7.53611765 C49.3410876,7.45129412 48.8866586,7.36605882 48.3471782,7.36605882 C47.9767734,7.36605882 47.6926526,7.39447059 47.4937885,7.42267647 C47.1246163,7.53632353 46.7552387,8.04876471 46.6118429,8.64685294 L46.2424653,10.1005882 C46.0733897,10.7542647 45.9020544,11.4666176 45.732568,12.2353824 C45.3623686,13.7733235 44.510006,16.6206765 43.5160967,19.4976765 L43.3724955,19.4976765 C41.5837462,14.9686765 40.3622115,11.3237353 39.6799517,8.56161765 C39.4808822,7.76444118 38.7137764,7.36605882 37.4334864,7.36605882 C36.7812205,7.36605882 36.0704048,7.45129412 35.3030937,7.59397059 L35.3030937,7.73561765 C35.6724713,8.04876471 36.0428761,8.61802941 36.4406042,9.44464706 C37.3207009,11.3237353 38.5147069,14.7691765 40.0491239,19.7824118 C40.3034562,20.6942647 41.0995287,21.3767647 41.7250876,21.6903235 C42.350852,22.0036765 43.2882659,22.2021471 43.5734139,22.2309706 C43.7149607,22.2597941 43.8002175,22.2597941 43.8852689,22.2597941 L48.1758429,10.3554706 C48.6875891,8.932 49.1709849,8.04897059 49.6539698,7.73582353 L49.6539698,7.59376471 L49.6541752,7.59376471 Z"></path>
                            <path d="M61.1163867,18.9269706 C60.3213414,19.4688529 58.6166163,20.1233529 57.2525076,20.1233529 C54.3825378,20.1233529 52.7343082,17.8732647 52.7343082,14.3712059 L52.8481208,14.3137647 L53.2737885,14.5132647 C53.8142961,14.7691765 54.9795408,15.1113529 55.9734502,15.1113529 C56.8833353,15.1113529 57.7356979,14.9972941 58.5305378,14.7413824 C60.0935106,14.2859706 61.4578248,13.0329706 61.4578248,11.2380882 C61.4578248,9.04544118 59.7243384,7.16655882 56.2288097,7.16655882 C52.2513233,7.16655882 49.494139,10.8969412 49.494139,15.0835588 C49.494139,17.1621471 50.1199033,18.8981471 51.3691722,20.2376176 C52.6204955,21.5758529 54.212435,22.2593824 56.1160242,22.2593824 C57.9068278,22.2593824 59.4393958,21.6612941 60.2075287,21.0063824 C60.9746344,20.3504412 61.6003988,19.3545882 61.7419456,19.0132353 C61.7994683,18.8703529 61.8272024,18.7285 61.8549366,18.6430588 L61.7131843,18.4991471 L61.1163867,18.9269706 L61.1163867,18.9269706 Z M53.1034804,11.3235294 C53.5301752,9.98611765 54.6391299,8.47617647 55.8596375,8.47617647 C57.3663202,8.47617647 58.077136,9.70035294 58.077136,11.2102941 C58.077136,12.8334706 56.854574,13.6874706 55.4041813,13.6874706 C54.6389245,13.6874706 53.6994562,13.4881765 53.1597704,13.2600588 C52.9044109,13.1746176 52.7618369,13.0893824 52.7618369,13.0041471 C52.7620423,12.5765294 52.875855,12.0080882 53.1034804,11.3235294 L53.1034804,11.3235294 Z"></path>
                            <path d="M68.9343323,20.3506471 C68.7352628,20.4945588 68.3393837,20.6652353 67.9969184,20.6652353 C67.1731118,20.6652353 66.7476495,20.0391471 66.7186828,18.7851176 C66.6326042,16.5636471 66.6048701,14.0288235 66.6048701,11.1528529 C66.6048701,10.1281765 66.6326042,8.61802941 66.6611601,6.6535 C66.6899215,4.68814706 66.7184773,3.20805882 66.7184773,2.26779412 C66.7184773,0.673029412 65.3268399,0.188794118 63.0526405,0.160794118 L62.9665619,0.274235294 L63.0814018,0.474352941 C63.1389245,0.616205882 63.2229486,0.957970588 63.3082054,1.49923529 C63.3934622,2.0405 63.4507795,2.69479412 63.4795408,3.46520588 C63.5645921,5.48594118 63.6208822,7.85029412 63.6208822,10.5269706 C63.6208822,11.6947353 63.5921208,13.3455 63.5645921,15.4251176 C63.5072749,17.5333529 63.4795408,18.9271765 63.4795408,19.6405588 C63.4795408,21.3769706 64.5874683,22.1169118 66.0353958,22.1169118 C66.9463082,22.1169118 67.7688822,21.8319706 68.2243384,21.4897941 C68.6510332,21.1774706 69.0202054,20.6942647 69.1042296,20.5503529 L69.1905136,20.3508529 L69.0754683,20.2666471 L68.9343323,20.3506471 L68.9343323,20.3506471 Z"></path>
                        </g>
                        <g transform="translate(0.000000, 23.470588)" id="Shape">
                            <path d="M15.0530634,13.0708529 C14.4005921,13.0708529 13.9738973,13.1264412 13.7185378,13.2127059 C14.029571,13.4408235 14.1729668,15.0063529 14.1729668,17.9401765 C14.1729668,18.9084412 14.1164713,19.7914706 14.029571,20.5890588 C13.0929789,20.8727647 12.0705136,21.0156471 10.9340302,21.0156471 C9.42714199,21.0156471 8.09076737,20.5592059 6.98283988,19.6207941 C4.71007855,17.7981176 3.68720242,14.8922941 3.68720242,11.7315882 C3.68720242,6.60552941 6.44335952,3.70135294 9.88136556,3.70135294 C12.0703082,3.70135294 14.2857523,4.92573529 15.7638792,7.17582353 L15.9341873,7.17582353 C16.5034562,6.57752941 17.0714924,5.40997059 17.0714924,4.75402941 C17.0714924,3.13188235 13.4896798,2.04935294 10.5061027,2.04935294 C8.4044713,2.04935294 6.55696677,2.59020588 4.9364713,3.70114706 C1.72609063,5.89379412 0.19229003,9.36805882 0.19229003,13.0418235 C0.19229003,15.6332647 1.04403625,17.9687941 2.63597583,19.8200882 C4.22791541,21.6701471 6.98283988,22.8379118 10.3082659,22.8379118 C10.7064048,22.8379118 11.6438187,22.7804706 13.1494743,22.6384118 C14.628423,22.4965588 15.6788278,22.4391176 16.3043867,22.4391176 C16.645003,22.4391176 16.9578852,22.4679412 17.2705619,22.5243529 L17.4121088,22.3814706 L17.3547915,20.0193824 C17.3547915,19.5052941 17.3835529,18.6799118 17.4408701,17.5121471 C17.4963384,16.3454118 17.5248943,15.519 17.5248943,15.0059412 C17.5250997,13.7255588 16.7004713,13.0708529 15.0530634,13.0708529 L15.0530634,13.0708529 Z"></path>
                            <path d="M21.1539577,5.46638235 C22.2053897,5.46638235 23.0865136,4.58438235 23.0865136,3.55847059 C23.0865136,2.50476471 22.2053897,1.62297059 21.1539577,1.62297059 C20.1314924,1.62297059 19.2503686,2.50476471 19.2503686,3.55847059 C19.2503686,4.58438235 20.131287,5.46638235 21.1539577,5.46638235 L21.1539577,5.46638235 Z"></path>
                            <path d="M25.2179335,21.1286765 L25.3040121,20.9291765 L25.1889668,20.8449706 L25.0476254,20.9291765 C24.8485559,21.0730882 24.4506224,21.2437647 24.110006,21.2437647 C23.4554804,21.2437647 23.0575468,20.9013824 22.8874441,20.1890294 C22.717136,19.5055 22.6883746,19.1355294 22.6883746,18.2535294 C22.6883746,17.6264118 22.717136,16.317 22.773426,14.3238529 C22.8034199,12.3294706 22.8319758,10.7919412 22.8319758,9.71044118 C22.8319758,8.5995 21.7507553,7.88714706 20.4152024,7.88714706 C20.0737644,7.88714706 19.6193353,7.97341176 19.0225378,8.14408824 C19.0512991,8.14408824 19.1363505,8.28573529 19.2214018,8.54308824 C19.3066586,8.799 19.4204713,9.53914706 19.534284,10.7633235 C19.6480967,11.9875 19.7056193,13.5828824 19.7056193,15.5196176 C19.7056193,16.0602647 19.6766526,16.8578529 19.6480967,17.9403824 C19.6193353,19.0227059 19.5907795,19.8482941 19.5907795,20.3889412 C19.5907795,21.9843235 20.7005559,22.6956471 22.1488943,22.6956471 C23.0575468,22.6956471 23.8823807,22.4107059 24.3366042,22.0695588 C24.7624773,21.7557941 25.1326767,21.2715588 25.2179335,21.1286765 L25.2179335,21.1286765 Z"></path>
                            <path d="M44.4126284,19.4490882 L43.9571722,19.7914706 C43.3899577,20.2466765 42.2236858,20.7885588 41.40029,20.7885588 C40.348858,20.7885588 39.6676254,20.2466765 39.3549486,19.1931765 C39.0420665,18.1674706 38.9568097,17.199 38.9568097,15.5760294 C38.9568097,14.1245588 38.9857764,12.3010588 39.0420665,10.052 L41.3435891,10.1084118 C42.4523384,10.1084118 42.9355287,9.79588235 42.9355287,8.65591176 C42.9355287,8.25691176 42.9355287,8.001 42.9057402,7.88714706 L42.7650151,7.94458824 C42.6226465,8.05782353 42.0541994,8.17270588 41.3723505,8.17270588 L39.041861,8.17270588 L39.6101027,5.06738235 L38.9566042,4.84008824 C38.531142,5.86497059 35.8025136,8.1725 34.665003,8.1725 L34.665003,8.20235294 C33.2733656,8.19020588 31.9973897,8.1725 31.7099819,8.1725 L29.6652568,8.1725 L29.749281,6.83302941 L29.749281,6.06426471 C29.749281,3.24470588 31.4550332,2.10576471 33.3596495,2.10576471 C35.0921088,2.10576471 36.2848822,2.59 36.8820906,3.58585294 L37.023432,3.50164706 C37.023432,1.56614706 35.1483988,0.197852941 32.3361571,0.197852941 C28.8118671,0.197852941 26.6249789,2.27623529 26.6249789,6.46202941 C26.6249789,7.83032353 26.0279758,8.1725 24.6916012,8.1725 L24.6916012,9.36805882 L25.4311782,9.65176471 C25.9994199,9.85126471 26.3687976,10.3066765 26.510139,11.0200588 C26.6537402,11.7313824 26.7377644,13.3267647 26.7377644,15.7753235 C26.7377644,19.3360588 26.6249789,22.0405294 26.4259094,23.8341765 C26.2268399,25.6576765 25.9418973,26.8244118 25.6300423,27.3660882 C25.3171601,27.9067353 24.8052085,28.3343529 24.1529426,28.5902647 L24.1529426,28.7331471 C24.4360363,28.9027941 24.7764471,28.9890588 25.1458248,28.9890588 C27.6751782,28.9890588 29.7490755,26.7677941 29.7490755,23.2655294 C29.7490755,21.812 29.7490755,19.9895294 29.7223686,17.8257059 C29.6936073,15.6909118 29.6650514,14.1807647 29.6650514,13.2977353 C29.6650514,12.1301765 29.6938127,11.0764706 29.778864,10.0793824 L30.7440121,10.0793824 C31.2834924,10.1082059 31.5963746,10.1082059 31.681426,10.1082059 C32.2291239,10.1082059 34.0086284,10.0847353 35.6734985,9.92517647 C35.9268036,10.2953529 35.9730272,10.9346176 35.9730272,12.2442353 L35.9167372,14.4943235 C35.8879758,15.6909118 35.8592145,16.6293235 35.8592145,17.3128529 C35.8592145,20.8161471 36.9967251,22.8379118 40.1497885,22.8379118 C41.4290514,22.8379118 42.622852,22.2684412 43.2188278,21.6989706 C43.7872749,21.1284706 44.327577,20.1890294 44.4413897,19.9042941 C44.4989124,19.7614118 44.5266465,19.6483824 44.5543807,19.5631471 L44.4126284,19.4490882 L44.4126284,19.4490882 Z"></path>
                        </g>
                    </g>
                    <g>
                        <path d="M0.0416312435,35.0012196 L34.9004991,0.0669648618 L69.7590765,35.0009284 L34.9002086,69.9351831 L0.0416312435,35.0012196 L0.0416312435,35.0012196 Z" id="Rectangle-path" fill="#D8DCDB"></path>
                        <path d="M34.9014622,0.814676471 L12.1598792,46.3953824 L57.6426344,46.3953824 L34.9014622,0.814676471 Z" id="Shape" fill="url(#linearGradient-1)"></path>
                        <path d="M34.9014622,69.1863529 L57.6426344,23.6052353 L12.1598792,23.6052353 L34.9014622,69.1863529 Z" id="Shape" fill="url(#linearGradient-2)"></path>
                        <path d="M0.789703927,34.9997941 L46.2712266,57.7907647 L46.2712266,12.2102647 L0.789703927,34.9997941 Z" id="Shape" fill="url(#linearGradient-3)"></path>
                        <path d="M69.0132205,35.0008235 L23.5308761,12.2102647 L23.5308761,57.7907647 L69.0132205,35.0008235 Z" id="Shape" fill="url(#linearGradient-4)"></path>
                        <g transform="translate(11.616314, 11.617647)" id="Shape" stroke="#FFFFFF" stroke-width="0.2" fill="#F1F1F2">
                            <path d="M34.6549124,0.592617647 L23.2847372,23.3827647 L0.543564955,34.7777353 L34.6549124,0.592617647 L34.6549124,0.592617647 Z M46.0263202,11.9875882 L11.9145619,46.1731176 L23.2847372,23.3827647 L46.0263202,11.9875882 L46.0263202,11.9875882 Z M34.8854139,0.272058824 L34.6103323,0.547735294 L0.498984894,34.7328529 L0.223903323,35.0085294 L0.571915408,34.8341471 L23.1436012,23.5242059 L11.8580665,46.1449118 L11.6840604,46.4936765 L11.959142,46.218 L46.0709003,12.0324706 L46.3459819,11.7567941 L45.9979698,11.9311765 L23.4258731,23.2413235 L34.7112024,0.620823529 L34.8854139,0.272058824 L34.8854139,0.272058824 Z"></path>
                            <path d="M11.9145619,0.592617647 L46.0263202,34.7777353 L23.2845317,23.3823529 L11.9145619,0.592617647 L11.9145619,0.592617647 Z M0.543564955,11.9875882 L23.2845317,23.3823529 L34.6549124,46.1731176 L0.543564955,11.9875882 L0.543564955,11.9875882 Z M11.6840604,0.272058824 L11.8580665,0.620823529 L23.1433958,23.2409118 L0.571915408,11.9309706 L0.223903323,11.7565882 L0.498984894,12.0322647 L34.6101269,46.2177941 L34.8852085,46.4934706 L34.7112024,46.1447059 L23.4254622,23.5237941 L45.9979698,34.8341471 L46.3459819,35.0085294 L46.0709003,34.7328529 L11.959142,0.547735294 L11.6840604,0.272058824 L11.6840604,0.272058824 Z"></path>
                        </g>
                        <path d="M34.9014622,0.814676471 L57.6426344,46.3953824 L12.1598792,46.3953824 L34.9014622,0.814676471 L34.9014622,0.814676471 Z M34.9014622,0.673235294 L34.8449668,0.786470588 L12.1035891,46.3669706 L12.0579819,46.4585882 L12.1600846,46.4585882 L57.6428399,46.4585882 L57.7449426,46.4585882 L57.6993353,46.3669706 L34.9579577,0.786470588 L34.9014622,0.673235294 L34.9014622,0.673235294 Z" id="Shape" stroke="#FFFFFF" stroke-width="0.2" fill="#FFFFFF"></path>
                        <path d="M46.2712266,12.2102647 L46.2712266,57.7909706 L0.789703927,34.9997941 L46.2712266,12.2102647 L46.2712266,12.2102647 Z M46.3342961,12.1077353 L46.2428761,12.1534412 L0.761353474,34.9431765 L0.648362538,34.9997941 L0.761353474,35.0564118 L46.2428761,57.8473824 L46.3342961,57.8930882 L46.3342961,57.7907647 L46.3342961,12.2102647 L46.3342961,12.1077353 L46.3342961,12.1077353 Z" id="Shape" stroke="#FFFFFF" stroke-width="0.2" fill="#FFFFFF"></path>
                        <path d="M57.6426344,23.6052353 L34.9014622,69.1863529 L12.1598792,23.6052353 L57.6426344,23.6052353 L57.6426344,23.6052353 Z M57.7447372,23.5420294 L57.6426344,23.5420294 L12.1598792,23.5420294 L12.0577764,23.5420294 L12.1033837,23.6336471 L34.8447613,69.2147647 L34.9012568,69.328 L34.9577523,69.2147647 L57.6989245,23.6336471 L57.7447372,23.5420294 L57.7447372,23.5420294 Z" id="Shape" stroke="#FFFFFF" stroke-width="0.2" fill="#FFFFFF"></path>
                        <path d="M23.5308761,12.2102647 L69.0132205,35.0008235 L23.5308761,57.7907647 L23.5308761,12.2102647 L23.5308761,12.2102647 Z M23.4678066,12.1077353 L23.4678066,12.2100588 L23.4678066,57.7907647 L23.4678066,57.8930882 L23.5592266,57.8473824 L69.041571,35.0574412 L69.1545619,35.0008235 L69.041571,34.9442059 L23.5590211,12.1536471 L23.4678066,12.1077353 L23.4678066,12.1077353 Z" id="Shape" stroke="#FFFFFF" stroke-width="0.2" fill="#FFFFFF"></path>
                    </g>
                </g>
                <path d="M147.566708,15.6147705 C147.566708,16.5196319 147.180386,17.1397189 146.407731,17.4750499 L148.328554,20.6686627 L146.26995,20.6686627 L144.827307,17.9700599 L144.446384,17.9700599 L144.446384,20.6686627 L142.590399,20.6686627 L142.590399,13.3552894 L144.73005,13.3552894 C145.708027,13.3552894 146.425289,13.5415816 146.881858,13.9141717 C147.338427,14.2867617 147.566708,14.8536223 147.566708,15.6147705 L147.566708,15.6147705 Z M144.446384,16.6287425 L144.697631,16.6287425 C145.054241,16.6287425 145.309538,16.552895 145.463529,16.4011976 C145.617519,16.2495002 145.694514,15.9980057 145.694514,15.6467066 C145.694514,15.3007301 145.61887,15.0558889 145.467581,14.9121756 C145.316292,14.7684624 145.054241,14.6966068 144.681421,14.6966068 L144.446384,14.6966068 L144.446384,16.6287425 Z M139,17.003992 C139,15.9394491 139.270155,14.9414551 139.810474,14.00998 C140.350792,13.078505 141.093719,12.3439814 142.039277,11.8063872 C142.984834,11.2687931 144.00332,11 145.094763,11 C146.1754,11 147.188482,11.2661317 148.13404,11.7984032 C149.079597,12.3306747 149.825226,13.0625369 150.370948,13.994012 C150.916669,14.925487 151.189526,15.9288037 151.189526,17.003992 C151.189526,18.0525668 150.927476,19.0372542 150.403367,19.9580838 C149.879258,20.8789135 149.144435,21.6160984 148.198878,22.1696607 C147.25332,22.723223 146.218626,23 145.094763,23 C143.976304,23 142.944311,22.7245537 141.998753,22.1736527 C141.053196,21.6227517 140.317023,20.8868975 139.790212,19.9660679 C139.263401,19.0452382 139,18.0578895 139,17.003992 L139,17.003992 Z M140.150873,17.003992 C140.150873,17.8769172 140.3724,18.6899497 140.815461,19.4431138 C141.258523,20.1962779 141.86367,20.7897517 142.630923,21.2235529 C143.398175,21.6573541 144.219447,21.8742515 145.094763,21.8742515 C145.980886,21.8742515 146.80621,21.6560235 147.570761,21.2195609 C148.335311,20.7830983 148.937758,20.1869632 149.378117,19.4311377 C149.818477,18.6753123 150.038653,17.8662718 150.038653,17.003992 C150.038653,16.1310668 149.817126,15.3180344 149.374065,14.5648703 C148.931004,13.8117061 148.325856,13.2182324 147.558603,12.7844311 C146.791351,12.3506299 145.970079,12.1337325 145.094763,12.1337325 C144.208641,12.1337325 143.383316,12.3519606 142.618766,12.7884232 C141.854215,13.2248857 141.251769,13.8210208 140.811409,14.5768463 C140.371049,15.3326718 140.150873,16.1417123 140.150873,17.003992 L140.150873,17.003992 Z" id="®" fill="#5E6367" sketch:type="MSShapeGroup"></path>
            </g>
        </g>
    </g>
</svg>